<?xml version="1.0" standalone="no"?>
<!DOCTYPE svg PUBLIC "-//W3C//DTD SVG 20010904//EN"
 "http://www.w3.org/TR/2001/REC-SVG-20010904/DTD/svg10.dtd">
<svg version="1.0" xmlns="http://www.w3.org/2000/svg"
 width="2000.000000pt" height="800.000000pt" viewBox="0 0 2000.000000 800.000000"
 preserveAspectRatio="xMidYMid meet">

<g transform="translate(0.000000,800.000000) scale(0.100000,-0.100000)"
fill="#000000" stroke="none">
<path d="M5710 5928 c-41 -17 -136 -50 -212 -72 -126 -38 -135 -43 -123 -59
12 -17 18 -16 111 18 106 39 304 130 304 139 0 7 8 10 -80 -26z"/>
<path d="M4645 5859 c-151 -16 -310 -41 -458 -70 -167 -34 -374 -86 -397 -100
-12 -8 -11 -9 5 -5 304 79 732 145 980 152 161 5 184 4 215 -13 43 -22 49 -51
18 -80 -20 -19 -140 -47 -718 -167 -382 -80 -932 -195 -1221 -255 l-526 -110
-224 -7 c-123 -4 -214 -11 -204 -15 11 -4 122 -8 247 -8 258 -1 322 8 843 113
149 30 273 51 277 48 4 -4 85 -191 182 -417 326 -765 326 -765 351 -765 21 0
15 16 -81 208 -125 250 -129 268 -121 542 6 179 15 240 49 315 38 86 80 116
268 192 176 72 291 109 475 153 257 63 386 113 456 180 48 46 50 73 7 97 -27
14 -63 18 -188 19 -85 1 -191 -2 -235 -7z m-842 -456 c-7 -2 -19 -2 -25 0 -7
3 -2 5 12 5 14 0 19 -2 13 -5z m-96 -19 c-3 -3 -12 -4 -19 -1 -8 3 -5 6 6 6
11 1 17 -2 13 -5z m140 0 c-3 -3 -12 -4 -19 -1 -8 3 -5 6 6 6 11 1 17 -2 13
-5z m-190 -186 c-2 -18 -4 -6 -4 27 0 33 2 48 4 33 2 -15 2 -42 0 -60z m23
-122 c0 -26 -6 -18 -14 19 -5 22 -4 26 4 15 5 -8 10 -24 10 -34z m40 -75 c0
-15 7 -49 16 -75 12 -35 13 -51 5 -59 -8 -8 -11 -6 -11 9 -1 10 -9 44 -20 74
-24 68 -25 91 -5 84 8 -4 15 -18 15 -33z m37 -183 c-3 -7 -5 -2 -5 12 0 14 2
19 5 13 2 -7 2 -19 0 -25z"/>
<path d="M15911 4999 c-20 -23 -30 -43 -25 -48 15 -14 662 -431 678 -437 12
-5 240 79 258 95 10 9 -379 227 -555 311 -148 70 -276 121 -305 119 -9 0 -32
-19 -51 -40z"/>
<path d="M15785 4902 c-27 -16 -68 -40 -91 -54 -97 -62 -378 -191 -499 -228
-22 -7 -44 -16 -48 -20 -6 -5 189 -420 207 -437 3 -3 36 2 73 10 37 9 105 24
151 33 53 11 78 20 70 25 -10 7 -9 9 5 9 9 0 17 5 17 11 0 6 9 8 21 4 16 -5
19 -4 14 6 -6 9 -4 10 11 4 29 -14 95 -10 158 10 l57 18 -38 23 c-21 13 -33
24 -28 24 6 0 16 -5 23 -12 9 -9 17 -7 34 9 13 12 43 23 68 27 69 9 86 16 100
41 l12 23 62 -22 61 -23 118 41 c64 22 116 43 115 47 -3 7 -613 459 -619 459
-2 0 -26 -13 -54 -28z"/>
<path d="M15030 4564 c-52 -16 -235 -68 -297 -84 l-42 -11 18 -32 c10 -18 50
-96 91 -174 l72 -143 102 0 c93 0 275 17 285 26 2 2 -22 70 -53 151 -32 82
-69 178 -83 216 -15 37 -31 67 -37 66 -6 0 -31 -7 -56 -15z"/>
<path d="M12881 4034 c-47 -40 -56 -83 -42 -216 13 -125 28 -160 81 -195 46
-32 76 -29 115 10 45 45 50 72 37 209 -12 130 -26 166 -75 197 -45 28 -79 26
-116 -5z"/>
<path d="M17428 4030 c-284 -84 -612 -137 -1008 -163 l-174 -12 -81 -121 c-87
-131 -220 -291 -321 -383 -35 -32 -64 -62 -64 -66 0 -24 595 20 819 60 46 8
86 13 88 11 5 -5 -194 -168 -272 -222 -121 -85 -404 -228 -530 -268 -142 -46
-461 -77 -862 -83 l-312 -5 -7 -32 c-16 -74 -85 -156 -132 -156 -15 0 -34 -5
-42 -10 -12 -8 -10 -10 8 -10 13 0 20 -4 17 -10 -19 -31 372 6 747 71 302 52
821 179 1048 256 173 59 494 203 644 291 117 68 262 187 422 347 187 187 214
228 214 328 0 97 -48 208 -88 206 -9 0 -61 -13 -114 -29z"/>
<path d="M12322 3980 c-51 -31 -65 -77 -57 -180 11 -141 22 -181 57 -217 58
-60 123 -53 169 20 18 28 20 43 15 129 -9 141 -21 189 -59 226 -43 42 -83 49
-125 22z"/>
<path d="M8001 3938 c-124 -61 -191 -210 -191 -431 0 -132 19 -225 70 -335 96
-206 264 -276 393 -162 86 76 137 220 137 390 0 102 -8 163 -19 155 -4 -2 -6
10 -4 28 3 26 1 28 -6 12 -5 -11 -10 -14 -10 -7 -1 8 -6 10 -13 6 -7 -4 -5 2
5 14 12 13 16 28 12 41 -7 22 -1 25 -65 -31 -11 -10 -31 -18 -44 -18 -15 0
-26 -7 -28 -17 -3 -15 -5 -14 -10 4 -5 19 -1 22 33 28 35 6 39 10 39 36 0 56
-70 100 -100 64 -17 -21 -23 -19 -43 16 -17 30 -17 33 1 63 21 36 79 78 96 70
6 -3 -6 10 -27 30 -40 36 -112 66 -156 66 -14 -1 -46 -11 -70 -22z m193 -57
c3 -5 -13 -27 -35 -50 -44 -44 -55 -50 -46 -27 3 8 -1 20 -9 26 -8 7 -14 9
-14 4 0 -5 -5 -1 -11 9 -5 9 -7 22 -4 27 9 15 33 12 43 -6 8 -14 12 -14 30 -3
12 8 22 17 22 21 0 11 18 10 24 -1z m149 -341 c3 -11 1 -18 -4 -14 -5 3 -9 12
-9 20 0 20 7 17 13 -6z"/>
<path d="M11752 3920 c-59 -36 -68 -71 -54 -216 13 -138 26 -173 78 -205 42
-26 77 -24 112 6 51 43 57 72 44 208 -14 133 -27 168 -82 204 -41 28 -56 28
-98 3z"/>
<path d="M4187 3838 c24 -43 45 -89 47 -101 2 -12 10 -21 17 -19 9 2 9 -1 -2
-14 -14 -18 -20 -95 -7 -104 4 -3 9 -15 11 -25 9 -48 20 -74 28 -69 5 3 6 -1
4 -9 -3 -7 6 -39 21 -71 22 -49 29 -57 48 -52 11 3 45 11 74 17 28 7 52 16 52
20 0 10 -161 262 -173 270 -5 3 -9 10 -10 15 -1 5 -5 8 -8 7 -4 -1 -6 5 -5 15
0 9 -5 16 -12 14 -8 -1 -11 2 -8 7 9 15 -63 133 -76 125 -8 -5 -9 -1 -5 10 4
10 3 15 -3 11 -9 -5 -14 6 -12 26 1 3 -5 6 -12 6 -8 0 4 -31 31 -79z"/>
<path d="M11188 3865 c-14 -8 -36 -31 -48 -51 -21 -33 -22 -43 -16 -132 13
-181 29 -221 99 -252 40 -18 43 -18 72 -1 41 23 75 77 75 117 0 82 -24 235
-41 263 -34 56 -96 81 -141 56z"/>
<path d="M4145 3829 c-4 -6 -5 -12 -2 -15 2 -3 7 2 10 11 7 17 1 20 -8 4z"/>
<path d="M10614 3800 c-17 -11 -39 -36 -49 -55 -18 -32 -18 -44 -8 -160 12
-134 26 -173 73 -205 47 -33 76 -33 113 0 56 49 62 73 48 212 -14 132 -25 166
-68 196 -44 30 -74 34 -109 12z"/>
<path d="M8290 3787 c0 -21 37 -64 46 -54 7 7 -28 77 -38 77 -4 0 -8 -10 -8
-23z"/>
<path d="M4179 3788 c-6 -14 -5 -48 1 -48 5 0 11 -19 15 -42 6 -33 9 -38 17
-24 6 11 4 26 -6 47 -8 16 -13 36 -10 44 4 10 -13 34 -17 23z"/>
<path d="M10065 3750 c-35 -13 -74 -61 -81 -99 -11 -57 13 -262 34 -290 24
-32 61 -59 93 -66 21 -5 34 0 62 24 56 50 62 74 48 208 -14 123 -19 145 -48
180 -24 29 -83 53 -108 43z"/>
<path d="M9473 3679 c-54 -34 -67 -77 -59 -193 4 -56 11 -118 16 -140 10 -44
49 -89 92 -107 43 -18 91 10 119 68 20 42 21 48 8 164 -13 128 -27 163 -79
200 -40 28 -63 30 -97 8z"/>
<path d="M4216 3637 c3 -10 9 -15 12 -12 3 3 0 11 -7 18 -10 9 -11 8 -5 -6z"/>
<path d="M8881 3600 c-45 -46 -51 -80 -35 -214 15 -133 33 -174 88 -200 47
-22 70 -20 105 9 47 40 54 78 41 208 -14 134 -22 158 -67 197 -46 41 -91 41
-132 0z"/>
<path d="M8542 3435 c0 -16 2 -22 5 -12 2 9 2 23 0 30 -3 6 -5 -1 -5 -18z"/>
<path d="M8668 3423 c7 -3 16 -2 19 1 4 3 -2 6 -13 5 -11 0 -14 -3 -6 -6z"/>
<path d="M5943 3326 c-4 -8 -30 -38 -57 -67 -26 -29 -49 -60 -51 -68 -1 -9 -7
-16 -14 -16 -14 0 -138 -131 -183 -192 -17 -24 -36 -43 -41 -43 -5 0 -6 -7 -3
-16 3 -8 2 -13 -3 -10 -5 3 -14 -1 -21 -9 -11 -13 -4 -15 49 -15 33 0 61 -4
61 -9 0 -5 -7 -37 -16 -71 -20 -78 -12 -127 21 -140 14 -5 101 -28 195 -51
l171 -41 29 -42 c15 -22 55 -67 88 -99 l59 -58 109 -11 c196 -18 464 8 776 77
171 37 311 75 258 70 -415 -44 -757 -17 -1032 81 -167 59 -254 128 -312 245
-55 112 -79 238 -73 382 2 64 3 117 1 117 -2 0 -7 -6 -11 -14z m-133 -200 c0
-3 -4 -8 -10 -11 -5 -3 -10 -1 -10 4 0 6 5 11 10 11 6 0 10 -2 10 -4z m-62
-106 c-7 -10 -14 -17 -17 -15 -4 4 18 35 25 35 2 0 -1 -9 -8 -20z"/>
<path d="M4468 3263 c-82 -2 -148 -8 -148 -12 0 -5 5 -11 12 -13 7 -3 13 -38
16 -96 l4 -92 32 -5 c17 -2 42 -6 56 -8 14 -3 -19 -5 -73 -6 -78 -1 -99 -4
-104 -16 -9 -24 1 -28 95 -36 48 -5 137 -12 197 -18 61 -5 147 -12 192 -16
l81 -7 -36 71 c-43 87 -53 170 -28 219 9 17 16 33 16 37 0 3 -37 4 -82 3 -46
-1 -149 -4 -230 -5z"/>
<path d="M4303 3130 c0 -47 2 -66 4 -42 2 23 2 61 0 85 -2 23 -4 4 -4 -43z"/>
<path d="M3952 3160 c0 -14 2 -19 5 -12 2 6 2 18 0 25 -3 6 -5 1 -5 -13z"/>
<path d="M12833 3123 c9 -2 25 -2 35 0 9 3 1 5 -18 5 -19 0 -27 -2 -17 -5z"/>
<path d="M13133 3113 c9 -2 25 -2 35 0 9 3 1 5 -18 5 -19 0 -27 -2 -17 -5z"/>
<path d="M13193 3108 c3 -10 -10 -12 -54 -10 -43 3 -64 -1 -81 -13 -19 -15
-20 -16 -3 -10 42 17 103 16 195 -3 140 -30 348 -110 357 -138 2 -5 -39 -21
-92 -34 -52 -13 -90 -27 -85 -30 6 -4 -4 -6 -22 -6 -18 0 -81 -13 -140 -29
l-107 -30 -51 58 c-43 48 -54 55 -70 47 -14 -7 -21 -7 -27 2 -9 15 -70 38 -99
38 -16 0 -17 -2 -4 -10 22 -14 1 -11 -40 6 -23 9 -27 13 -10 10 23 -5 24 -4 7
8 -17 13 -16 15 10 24 17 7 21 11 11 11 -11 1 -18 9 -18 21 0 30 -47 28 -52
-2 -3 -21 -8 -23 -63 -21 l-60 2 54 -10 c30 -5 57 -12 60 -15 3 -4 -10 -3 -29
0 -86 17 -579 18 -840 2 -890 -55 -1957 -179 -2720 -317 -305 -55 -340 -62
-336 -66 2 -2 86 8 187 21 562 78 1538 186 2159 240 887 77 1338 85 1545 28
28 -8 25 -10 -60 -46 -269 -112 -779 -259 -1305 -376 -807 -179 -1580 -300
-2935 -460 -137 -16 -209 -27 -160 -25 50 2 108 7 130 10 22 3 34 3 28 -1 -7
-3 -13 -14 -13 -24 0 -10 -6 -21 -12 -23 -7 -3 -3 -6 9 -6 12 -1 25 -6 29 -12
8 -14 100 -8 409 27 121 13 229 24 240 25 l20 0 -20 10 c-16 7 -14 8 10 4 75
-13 1429 193 2100 320 72 13 182 34 245 45 143 26 156 30 140 40 -21 13 -7 45
21 48 30 3 49 -26 27 -40 -16 -9 26 -11 60 -2 23 7 22 8 -19 50 -32 33 -39 44
-25 44 9 0 14 5 11 10 -3 6 3 10 13 10 11 0 38 -20 61 -45 25 -28 50 -45 64
-45 20 0 22 4 19 43 -3 35 1 46 22 66 l26 24 0 -55 c0 -36 -5 -58 -12 -61 -39
-16 49 -1 294 49 427 87 733 161 825 199 40 17 47 9 41 -47 -3 -30 -9 -36 -68
-66 -209 -104 -846 -254 -1525 -358 -1212 -185 -2528 -338 -4650 -538 -506
-48 -1478 -132 -2265 -195 -366 -30 -372 -30 -472 21 -46 23 -88 41 -95 40 -7
-1 -19 -3 -26 -4 -8 -1 -11 -13 -9 -34 5 -42 -3 -44 -169 -46 -199 -3 -103
-15 231 -28 157 -7 337 -16 400 -21 227 -17 560 -9 1195 31 205 13 245 18 242
33 -1 7 10 12 28 12 19 0 29 -5 27 -12 -2 -14 26 -17 52 -7 13 5 12 9 -5 27
-34 37 -40 53 -24 73 14 18 18 16 71 -38 70 -72 84 -74 84 -10 0 35 5 54 18
65 30 27 34 21 30 -43 -2 -50 0 -60 13 -60 23 0 570 46 834 70 2359 216 4385
502 5445 770 86 22 177 39 205 38 47 0 48 -1 20 -11 -16 -5 -36 -14 -43 -20
-7 -5 -81 -32 -165 -58 -84 -26 -147 -48 -142 -48 71 -3 505 65 713 110 94 21
209 36 367 49 292 25 309 27 492 56 265 43 490 120 556 191 61 65 41 153 -50
232 -62 53 -200 121 -334 165 -140 46 -213 58 -109 18 223 -86 390 -203 405
-285 8 -42 4 -73 -10 -71 -59 9 -499 14 -533 6 -39 -9 -65 -1 -42 13 5 3 10
31 10 61 0 103 -50 163 -200 242 -123 65 -381 135 -367 100z m65 -15 c-10 -2
-26 -2 -35 0 -10 3 -2 5 17 5 19 0 27 -2 18 -5z m-283 -183 c3 -6 -1 -7 -9 -4
-18 7 -21 14 -7 14 6 0 13 -4 16 -10z m139 -72 c-3 -4 1 -8 8 -8 9 0 9 -3 -2
-10 -10 -6 -11 -10 -2 -10 6 0 12 -12 12 -27 l0 -28 -19 29 c-11 17 -17 34
-14 39 3 6 2 7 -4 4 -6 -4 -21 6 -34 21 -13 14 -16 20 -6 13 9 -7 17 -10 17
-6 0 4 7 2 15 -5 13 -11 14 -10 9 4 -3 9 -12 16 -19 16 -7 0 -15 10 -18 21 -5
18 -1 17 28 -11 19 -18 32 -37 29 -42z m-94 52 c8 -5 11 -10 5 -10 -5 0 -17 5
-25 10 -8 5 -10 10 -5 10 6 0 17 -5 25 -10z m117 -232 c-2 -13 -4 -5 -4 17 -1
22 1 32 4 23 2 -10 2 -28 0 -40z m26 -35 c-7 -2 -21 -2 -30 0 -10 3 -4 5 12 5
17 0 24 -2 18 -5z m-4270 -590 c-7 -2 -21 -2 -30 0 -10 3 -4 5 12 5 17 0 24
-2 18 -5z m-78 -13 c4 -6 -13 -10 -43 -10 -27 0 -65 -3 -83 -6 -19 -4 -31 -4
-28 -1 5 6 93 23 131 26 9 0 20 -3 23 -9z m-4810 -500 c3 -5 -1 -10 -9 -10 -9
0 -16 5 -16 10 0 6 4 10 9 10 6 0 13 -4 16 -10z m52 -26 c-7 -7 -37 7 -37 17
0 6 9 5 21 -1 11 -7 19 -14 16 -16z"/>
<path d="M12966 3078 c3 -5 10 -6 15 -3 13 9 11 12 -6 12 -8 0 -12 -4 -9 -9z"/>
<path d="M12975 3060 l-20 -9 20 0 c11 0 27 4 35 9 13 9 13 10 0 9 -8 0 -24
-4 -35 -9z"/>
<path d="M12880 3035 c0 -8 7 -15 15 -15 9 0 12 6 9 15 -4 8 -10 15 -15 15 -5
0 -9 -7 -9 -15z"/>
<path d="M12708 3023 c6 -2 18 -2 25 0 6 3 1 5 -13 5 -14 0 -19 -2 -12 -5z"/>
<path d="M12758 3013 c6 -2 18 -2 25 0 6 3 1 5 -13 5 -14 0 -19 -2 -12 -5z"/>
<path d="M7485 2975 c-86 -13 -57 -19 43 -9 34 4 59 11 56 15 -3 5 -8 8 -12 8
-4 -1 -43 -7 -87 -14z"/>
<path d="M12925 2980 c6 -10 70 -40 83 -40 11 0 -35 30 -63 40 -17 7 -24 7
-20 0z"/>
<path d="M10140 2934 c-1151 -87 -2022 -267 -2460 -506 -89 -49 -193 -118
-187 -124 9 -9 201 36 217 51 32 29 209 105 360 155 450 148 1213 295 2080
400 140 17 262 32 270 34 33 8 -114 3 -280 -10z"/>
<path d="M7573 2883 c-31 -4 -33 -7 -33 -44 0 -34 3 -39 24 -39 21 0 24 -5 30
-62 3 -34 7 -62 9 -64 3 -3 105 14 186 32 l73 16 -42 21 c-23 12 -74 50 -114
84 -39 35 -78 62 -86 61 -8 -1 -30 -3 -47 -5z"/>
<path d="M5451 2745 c-53 -80 -75 -135 -69 -175 3 -23 14 -28 128 -57 102 -27
408 -93 428 -93 3 0 -36 26 -86 58 -51 31 -125 88 -167 125 -71 65 -165 182
-165 206 0 26 -22 6 -69 -64z"/>
<path d="M8085 2785 c-39 -18 -31 -18 25 -1 25 8 36 15 25 15 -11 0 -33 -6
-50 -14z"/>
<path d="M7518 2663 c7 -3 16 -2 19 1 4 3 -2 6 -13 5 -11 0 -14 -3 -6 -6z"/>
<path d="M8250 2457 c-35 -7 -47 -12 -32 -15 14 -2 22 -10 22 -23 0 -16 -8
-19 -42 -20 -24 -1 -58 -1 -75 0 l-33 3 0 -82 0 -82 93 7 c149 10 518 44 710
65 273 30 452 72 449 105 -2 17 -101 34 -267 45 -205 13 -753 11 -825 -3z"/>
<path d="M14108 2443 c6 -2 18 -2 25 0 6 3 1 5 -13 5 -14 0 -19 -2 -12 -5z"/>
<path d="M8095 2425 c-27 -7 -41 -13 -30 -14 11 0 45 6 75 14 30 7 44 13 30
13 -14 0 -47 -6 -75 -13z"/>
<path d="M7968 2393 c7 -3 16 -2 19 1 4 3 -2 6 -13 5 -11 0 -14 -3 -6 -6z"/>
<path d="M7928 2383 c7 -3 16 -2 19 1 4 3 -2 6 -13 5 -11 0 -14 -3 -6 -6z"/>
<path d="M7998 2233 c6 -2 18 -2 25 0 6 3 1 5 -13 5 -14 0 -19 -2 -12 -5z"/>
<path d="M7838 2223 c7 -3 16 -2 19 1 4 3 -2 6 -13 5 -11 0 -14 -3 -6 -6z"/>
<path d="M8173 1963 c9 -2 25 -2 35 0 9 3 1 5 -18 5 -19 0 -27 -2 -17 -5z"/>
<path d="M8260 1920 c0 -5 19 -10 43 -9 36 1 38 2 17 9 -36 12 -60 12 -60 0z"/>
<path d="M8378 1923 c12 -2 30 -2 40 0 9 3 -1 5 -23 4 -22 0 -30 -2 -17 -4z"/>
<path d="M8307 1899 c-38 -4 -71 -10 -75 -13 -7 -7 137 4 193 14 l40 8 -45 0
c-25 -1 -76 -4 -113 -9z"/>
<path d="M8170 1880 c-20 -6 -21 -8 -5 -8 11 0 29 3 40 8 25 11 -1 11 -35 0z"/>
<path d="M7748 1833 c7 -3 16 -2 19 1 4 3 -2 6 -13 5 -11 0 -14 -3 -6 -6z"/>
</g>
</svg>
